<mxGraphModel dx="2187" dy="840" grid="1" gridSize="10" guides="1" tooltips="1" connect="1" arrows="1" fold="1" page="1" pageScale="1" pageWidth="827" pageHeight="1169" math="0" shadow="0">
  <root>
    <mxCell id="WIyWlLk6GJQsqaUBKTNV-0" />
    <mxCell id="WIyWlLk6GJQsqaUBKTNV-1" parent="WIyWlLk6GJQsqaUBKTNV-0" />
    <mxCell id="zkfFHV4jXpPFQw0GAbJ--0" value="Recurrence" style="swimlane;fontStyle=2;align=center;verticalAlign=top;childLayout=stackLayout;horizontal=1;startSize=30;horizontalStack=0;resizeParent=1;resizeLast=0;collapsible=1;marginBottom=0;rounded=0;shadow=0;strokeWidth=1;" parent="WIyWlLk6GJQsqaUBKTNV-1" vertex="1">
      <mxGeometry x="53.75" y="541" width="492.5" height="152" as="geometry">
        <mxRectangle x="47.5" y="80" width="160" height="26" as="alternateBounds" />
      </mxGeometry>
    </mxCell>
    <mxCell id="zkfFHV4jXpPFQw0GAbJ--4" value="" style="line;html=1;strokeWidth=1;align=left;verticalAlign=middle;spacingTop=-1;spacingLeft=3;spacingRight=3;rotatable=0;labelPosition=right;points=[];portConstraint=eastwest;" parent="zkfFHV4jXpPFQw0GAbJ--0" vertex="1">
      <mxGeometry y="30" width="492.5" height="8" as="geometry" />
    </mxCell>
    <mxCell id="zkfFHV4jXpPFQw0GAbJ--5" value="#getLastDayOfMonth() : int" style="text;align=left;verticalAlign=top;spacingLeft=4;spacingRight=4;overflow=hidden;rotatable=0;points=[[0,0.5],[1,0.5]];portConstraint=eastwest;" parent="zkfFHV4jXpPFQw0GAbJ--0" vertex="1">
      <mxGeometry y="38" width="492.5" height="26" as="geometry" />
    </mxCell>
    <mxCell id="rN-NryZCxEeuz7KnTCO--17" value="#checkIfDateAltered&lt;T extends Type&gt;(entry:T, checkDate:LocalDate):void" style="text;align=left;verticalAlign=top;spacingLeft=4;spacingRight=4;overflow=hidden;rotatable=0;points=[[0,0.5],[1,0.5]];portConstraint=eastwest;" vertex="1" parent="zkfFHV4jXpPFQw0GAbJ--0">
      <mxGeometry y="64" width="492.5" height="26" as="geometry" />
    </mxCell>
    <mxCell id="rN-NryZCxEeuz7KnTCO--22" value="+checkIncomeRecurrence(recurringIncome:Income, incomes:IncomeList):void " style="text;align=left;verticalAlign=top;spacingLeft=4;spacingRight=4;overflow=hidden;rotatable=0;points=[[0,0.5],[1,0.5]];portConstraint=eastwest;fontStyle=2" vertex="1" parent="zkfFHV4jXpPFQw0GAbJ--0">
      <mxGeometry y="90" width="492.5" height="26" as="geometry" />
    </mxCell>
    <mxCell id="rN-NryZCxEeuz7KnTCO--23" value="+checkSpendingRecurrence(recurringSpending:Spending, spendings:SpendingList):void " style="text;align=left;verticalAlign=top;spacingLeft=4;spacingRight=4;overflow=hidden;rotatable=0;points=[[0,0.5],[1,0.5]];portConstraint=eastwest;fontStyle=2" vertex="1" parent="zkfFHV4jXpPFQw0GAbJ--0">
      <mxGeometry y="116" width="492.5" height="26" as="geometry" />
    </mxCell>
    <mxCell id="zkfFHV4jXpPFQw0GAbJ--6" value="DailyRecurrence" style="swimlane;fontStyle=0;align=center;verticalAlign=top;childLayout=stackLayout;horizontal=1;startSize=26;horizontalStack=0;resizeParent=1;resizeLast=0;collapsible=1;marginBottom=0;rounded=0;shadow=0;strokeWidth=1;" parent="WIyWlLk6GJQsqaUBKTNV-1" vertex="1">
      <mxGeometry x="-460" y="811" width="490" height="90" as="geometry">
        <mxRectangle x="130" y="380" width="160" height="26" as="alternateBounds" />
      </mxGeometry>
    </mxCell>
    <mxCell id="zkfFHV4jXpPFQw0GAbJ--9" value="" style="line;html=1;strokeWidth=1;align=left;verticalAlign=middle;spacingTop=-1;spacingLeft=3;spacingRight=3;rotatable=0;labelPosition=right;points=[];portConstraint=eastwest;" parent="zkfFHV4jXpPFQw0GAbJ--6" vertex="1">
      <mxGeometry y="26" width="490" height="8" as="geometry" />
    </mxCell>
    <mxCell id="rN-NryZCxEeuz7KnTCO--24" value="+checkIncomeRecurrence(recurringIncome:Income, incomes:IncomeList):void " style="text;align=left;verticalAlign=top;spacingLeft=4;spacingRight=4;overflow=hidden;rotatable=0;points=[[0,0.5],[1,0.5]];portConstraint=eastwest;fontStyle=0" vertex="1" parent="zkfFHV4jXpPFQw0GAbJ--6">
      <mxGeometry y="34" width="490" height="26" as="geometry" />
    </mxCell>
    <mxCell id="rN-NryZCxEeuz7KnTCO--25" value="+checkSpendingRecurrence(recurringSpending:Spending, spendings:SpendingList):void " style="text;align=left;verticalAlign=top;spacingLeft=4;spacingRight=4;overflow=hidden;rotatable=0;points=[[0,0.5],[1,0.5]];portConstraint=eastwest;fontStyle=2" vertex="1" parent="zkfFHV4jXpPFQw0GAbJ--6">
      <mxGeometry y="60" width="490" height="26" as="geometry" />
    </mxCell>
    <mxCell id="zkfFHV4jXpPFQw0GAbJ--12" value="" style="endArrow=block;endSize=10;endFill=0;shadow=0;strokeWidth=1;rounded=0;curved=0;edgeStyle=elbowEdgeStyle;elbow=vertical;" parent="WIyWlLk6GJQsqaUBKTNV-1" source="zkfFHV4jXpPFQw0GAbJ--6" target="zkfFHV4jXpPFQw0GAbJ--0" edge="1">
      <mxGeometry width="160" relative="1" as="geometry">
        <mxPoint x="200" y="654" as="sourcePoint" />
        <mxPoint x="200" y="654" as="targetPoint" />
      </mxGeometry>
    </mxCell>
    <mxCell id="zkfFHV4jXpPFQw0GAbJ--13" value="MonthlyRecurrence" style="swimlane;fontStyle=0;align=center;verticalAlign=top;childLayout=stackLayout;horizontal=1;startSize=26;horizontalStack=0;resizeParent=1;resizeLast=0;collapsible=1;marginBottom=0;rounded=0;shadow=0;strokeWidth=1;" parent="WIyWlLk6GJQsqaUBKTNV-1" vertex="1">
      <mxGeometry x="40" y="811" width="520" height="90" as="geometry">
        <mxRectangle x="340" y="380" width="170" height="26" as="alternateBounds" />
      </mxGeometry>
    </mxCell>
    <mxCell id="zkfFHV4jXpPFQw0GAbJ--15" value="" style="line;html=1;strokeWidth=1;align=left;verticalAlign=middle;spacingTop=-1;spacingLeft=3;spacingRight=3;rotatable=0;labelPosition=right;points=[];portConstraint=eastwest;" parent="zkfFHV4jXpPFQw0GAbJ--13" vertex="1">
      <mxGeometry y="26" width="520" height="8" as="geometry" />
    </mxCell>
    <mxCell id="rN-NryZCxEeuz7KnTCO--27" value="+checkIncomeRecurrence(recurringIncome:Income, incomes:IncomeList):void " style="text;align=left;verticalAlign=top;spacingLeft=4;spacingRight=4;overflow=hidden;rotatable=0;points=[[0,0.5],[1,0.5]];portConstraint=eastwest;fontStyle=2" vertex="1" parent="zkfFHV4jXpPFQw0GAbJ--13">
      <mxGeometry y="34" width="520" height="26" as="geometry" />
    </mxCell>
    <mxCell id="rN-NryZCxEeuz7KnTCO--28" value="+checkSpendingRecurrence(recurringSpending:Spending, spendings:SpendingList):void " style="text;align=left;verticalAlign=top;spacingLeft=4;spacingRight=4;overflow=hidden;rotatable=0;points=[[0,0.5],[1,0.5]];portConstraint=eastwest;fontStyle=2" vertex="1" parent="zkfFHV4jXpPFQw0GAbJ--13">
      <mxGeometry y="60" width="520" height="30" as="geometry" />
    </mxCell>
    <mxCell id="zkfFHV4jXpPFQw0GAbJ--16" value="" style="endArrow=block;endSize=10;endFill=0;shadow=0;strokeWidth=1;rounded=0;curved=0;edgeStyle=elbowEdgeStyle;elbow=vertical;" parent="WIyWlLk6GJQsqaUBKTNV-1" source="zkfFHV4jXpPFQw0GAbJ--13" target="zkfFHV4jXpPFQw0GAbJ--0" edge="1">
      <mxGeometry width="160" relative="1" as="geometry">
        <mxPoint x="210" y="824" as="sourcePoint" />
        <mxPoint x="310" y="722" as="targetPoint" />
      </mxGeometry>
    </mxCell>
    <mxCell id="rN-NryZCxEeuz7KnTCO--0" value="YearlyRecurrence" style="swimlane;fontStyle=0;align=center;verticalAlign=top;childLayout=stackLayout;horizontal=1;startSize=26;horizontalStack=0;resizeParent=1;resizeLast=0;collapsible=1;marginBottom=0;rounded=0;shadow=0;strokeWidth=1;" vertex="1" parent="WIyWlLk6GJQsqaUBKTNV-1">
      <mxGeometry x="580" y="811" width="490" height="90" as="geometry">
        <mxRectangle x="130" y="380" width="160" height="26" as="alternateBounds" />
      </mxGeometry>
    </mxCell>
    <mxCell id="rN-NryZCxEeuz7KnTCO--3" value="" style="line;html=1;strokeWidth=1;align=left;verticalAlign=middle;spacingTop=-1;spacingLeft=3;spacingRight=3;rotatable=0;labelPosition=right;points=[];portConstraint=eastwest;" vertex="1" parent="rN-NryZCxEeuz7KnTCO--0">
      <mxGeometry y="26" width="490" height="8" as="geometry" />
    </mxCell>
    <mxCell id="rN-NryZCxEeuz7KnTCO--29" value="+checkIncomeRecurrence(recurringIncome:Income, incomes:IncomeList):void " style="text;align=left;verticalAlign=top;spacingLeft=4;spacingRight=4;overflow=hidden;rotatable=0;points=[[0,0.5],[1,0.5]];portConstraint=eastwest;fontStyle=2" vertex="1" parent="rN-NryZCxEeuz7KnTCO--0">
      <mxGeometry y="34" width="490" height="26" as="geometry" />
    </mxCell>
    <mxCell id="rN-NryZCxEeuz7KnTCO--30" value="+checkSpendingRecurrence(recurringSpending:Spending, spendings:SpendingList):void " style="text;align=left;verticalAlign=top;spacingLeft=4;spacingRight=4;overflow=hidden;rotatable=0;points=[[0,0.5],[1,0.5]];portConstraint=eastwest;fontStyle=2" vertex="1" parent="rN-NryZCxEeuz7KnTCO--0">
      <mxGeometry y="60" width="490" height="30" as="geometry" />
    </mxCell>
    <mxCell id="rN-NryZCxEeuz7KnTCO--16" value="" style="endArrow=block;endSize=10;endFill=0;shadow=0;strokeWidth=1;rounded=0;curved=0;edgeStyle=elbowEdgeStyle;elbow=vertical;exitX=0.5;exitY=0;exitDx=0;exitDy=0;entryX=0.5;entryY=1;entryDx=0;entryDy=0;" edge="1" parent="WIyWlLk6GJQsqaUBKTNV-1" source="rN-NryZCxEeuz7KnTCO--0" target="zkfFHV4jXpPFQw0GAbJ--0">
      <mxGeometry width="160" relative="1" as="geometry">
        <mxPoint x="510" y="811" as="sourcePoint" />
        <mxPoint x="310" y="691" as="targetPoint" />
      </mxGeometry>
    </mxCell>
    <mxCell id="rN-NryZCxEeuz7KnTCO--51" style="edgeStyle=orthogonalEdgeStyle;rounded=0;orthogonalLoop=1;jettySize=auto;html=1;exitX=0;exitY=0.5;exitDx=0;exitDy=0;entryX=1;entryY=0.5;entryDx=0;entryDy=0;" edge="1" parent="WIyWlLk6GJQsqaUBKTNV-1" source="rN-NryZCxEeuz7KnTCO--31" target="rN-NryZCxEeuz7KnTCO--46">
      <mxGeometry relative="1" as="geometry" />
    </mxCell>
    <mxCell id="rN-NryZCxEeuz7KnTCO--72" style="edgeStyle=orthogonalEdgeStyle;rounded=0;orthogonalLoop=1;jettySize=auto;html=1;exitX=1;exitY=0.5;exitDx=0;exitDy=0;entryX=0;entryY=0.5;entryDx=0;entryDy=0;dashed=1;endArrow=open;endFill=0;" edge="1" parent="WIyWlLk6GJQsqaUBKTNV-1" source="rN-NryZCxEeuz7KnTCO--31" target="rN-NryZCxEeuz7KnTCO--67">
      <mxGeometry relative="1" as="geometry" />
    </mxCell>
    <mxCell id="rN-NryZCxEeuz7KnTCO--31" value="SpendingList" style="swimlane;fontStyle=0;align=center;verticalAlign=top;childLayout=stackLayout;horizontal=1;startSize=30;horizontalStack=0;resizeParent=1;resizeLast=0;collapsible=1;marginBottom=0;rounded=0;shadow=0;strokeWidth=1;" vertex="1" parent="WIyWlLk6GJQsqaUBKTNV-1">
      <mxGeometry x="-30" y="375" width="180" height="80" as="geometry">
        <mxRectangle x="47.5" y="80" width="160" height="26" as="alternateBounds" />
      </mxGeometry>
    </mxCell>
    <mxCell id="rN-NryZCxEeuz7KnTCO--32" value="" style="line;html=1;strokeWidth=1;align=left;verticalAlign=middle;spacingTop=-1;spacingLeft=3;spacingRight=3;rotatable=0;labelPosition=right;points=[];portConstraint=eastwest;" vertex="1" parent="rN-NryZCxEeuz7KnTCO--31">
      <mxGeometry y="30" width="180" height="20" as="geometry" />
    </mxCell>
    <mxCell id="rN-NryZCxEeuz7KnTCO--65" value="+updateRecurrence():void" style="text;align=left;verticalAlign=top;spacingLeft=4;spacingRight=4;overflow=hidden;rotatable=0;points=[[0,0.5],[1,0.5]];portConstraint=eastwest;" vertex="1" parent="rN-NryZCxEeuz7KnTCO--31">
      <mxGeometry y="50" width="180" height="30" as="geometry" />
    </mxCell>
    <mxCell id="rN-NryZCxEeuz7KnTCO--50" style="edgeStyle=orthogonalEdgeStyle;rounded=0;orthogonalLoop=1;jettySize=auto;html=1;exitX=1;exitY=0.5;exitDx=0;exitDy=0;entryX=0;entryY=0.5;entryDx=0;entryDy=0;" edge="1" parent="WIyWlLk6GJQsqaUBKTNV-1" source="rN-NryZCxEeuz7KnTCO--44" target="rN-NryZCxEeuz7KnTCO--48">
      <mxGeometry relative="1" as="geometry" />
    </mxCell>
    <mxCell id="rN-NryZCxEeuz7KnTCO--70" style="edgeStyle=orthogonalEdgeStyle;rounded=0;orthogonalLoop=1;jettySize=auto;html=1;exitX=0;exitY=0.5;exitDx=0;exitDy=0;entryX=1;entryY=0.5;entryDx=0;entryDy=0;dashed=1;endArrow=open;endFill=0;" edge="1" parent="WIyWlLk6GJQsqaUBKTNV-1" source="rN-NryZCxEeuz7KnTCO--44" target="rN-NryZCxEeuz7KnTCO--67">
      <mxGeometry relative="1" as="geometry" />
    </mxCell>
    <mxCell id="rN-NryZCxEeuz7KnTCO--44" value="IncomeList" style="swimlane;fontStyle=0;align=center;verticalAlign=top;childLayout=stackLayout;horizontal=1;startSize=30;horizontalStack=0;resizeParent=1;resizeLast=0;collapsible=1;marginBottom=0;rounded=0;shadow=0;strokeWidth=1;" vertex="1" parent="WIyWlLk6GJQsqaUBKTNV-1">
      <mxGeometry x="460" y="375" width="180" height="80" as="geometry">
        <mxRectangle x="47.5" y="80" width="160" height="26" as="alternateBounds" />
      </mxGeometry>
    </mxCell>
    <mxCell id="rN-NryZCxEeuz7KnTCO--45" value="" style="line;html=1;strokeWidth=1;align=left;verticalAlign=middle;spacingTop=-1;spacingLeft=3;spacingRight=3;rotatable=0;labelPosition=right;points=[];portConstraint=eastwest;" vertex="1" parent="rN-NryZCxEeuz7KnTCO--44">
      <mxGeometry y="30" width="180" height="20" as="geometry" />
    </mxCell>
    <mxCell id="rN-NryZCxEeuz7KnTCO--64" value="+updateRecurrence():void" style="text;align=left;verticalAlign=top;spacingLeft=4;spacingRight=4;overflow=hidden;rotatable=0;points=[[0,0.5],[1,0.5]];portConstraint=eastwest;" vertex="1" parent="rN-NryZCxEeuz7KnTCO--44">
      <mxGeometry y="50" width="180" height="30" as="geometry" />
    </mxCell>
    <mxCell id="rN-NryZCxEeuz7KnTCO--46" value="Spending" style="swimlane;fontStyle=0;align=center;verticalAlign=top;childLayout=stackLayout;horizontal=1;startSize=30;horizontalStack=0;resizeParent=1;resizeLast=0;collapsible=1;marginBottom=0;rounded=0;shadow=0;strokeWidth=1;" vertex="1" parent="WIyWlLk6GJQsqaUBKTNV-1">
      <mxGeometry x="-270" y="390" width="180" height="50" as="geometry">
        <mxRectangle x="47.5" y="80" width="160" height="26" as="alternateBounds" />
      </mxGeometry>
    </mxCell>
    <mxCell id="rN-NryZCxEeuz7KnTCO--47" value="" style="line;html=1;strokeWidth=1;align=left;verticalAlign=middle;spacingTop=-1;spacingLeft=3;spacingRight=3;rotatable=0;labelPosition=right;points=[];portConstraint=eastwest;" vertex="1" parent="rN-NryZCxEeuz7KnTCO--46">
      <mxGeometry y="30" width="180" height="20" as="geometry" />
    </mxCell>
    <mxCell id="rN-NryZCxEeuz7KnTCO--48" value="Income" style="swimlane;fontStyle=0;align=center;verticalAlign=top;childLayout=stackLayout;horizontal=1;startSize=30;horizontalStack=0;resizeParent=1;resizeLast=0;collapsible=1;marginBottom=0;rounded=0;shadow=0;strokeWidth=1;" vertex="1" parent="WIyWlLk6GJQsqaUBKTNV-1">
      <mxGeometry x="680" y="390" width="180" height="50" as="geometry">
        <mxRectangle x="47.5" y="80" width="160" height="26" as="alternateBounds" />
      </mxGeometry>
    </mxCell>
    <mxCell id="rN-NryZCxEeuz7KnTCO--49" value="" style="line;html=1;strokeWidth=1;align=left;verticalAlign=middle;spacingTop=-1;spacingLeft=3;spacingRight=3;rotatable=0;labelPosition=right;points=[];portConstraint=eastwest;" vertex="1" parent="rN-NryZCxEeuz7KnTCO--48">
      <mxGeometry y="30" width="180" height="20" as="geometry" />
    </mxCell>
    <mxCell id="rN-NryZCxEeuz7KnTCO--52" value="*" style="text;html=1;resizable=0;points=[];;align=center;verticalAlign=middle;labelBackgroundColor=none;rounded=0;shadow=0;strokeWidth=1;fontSize=20;" vertex="1" connectable="0" parent="WIyWlLk6GJQsqaUBKTNV-1">
      <mxGeometry x="827.0023076923076" y="720.0015384615383" as="geometry">
        <mxPoint x="-167" y="-313" as="offset" />
      </mxGeometry>
    </mxCell>
    <mxCell id="rN-NryZCxEeuz7KnTCO--55" value="*" style="text;html=1;resizable=0;points=[];;align=center;verticalAlign=middle;labelBackgroundColor=none;rounded=0;shadow=0;strokeWidth=1;fontSize=20;" vertex="1" connectable="0" parent="WIyWlLk6GJQsqaUBKTNV-1">
      <mxGeometry x="430.0023076923076" y="800.0015384615383" as="geometry">
        <mxPoint x="-503" y="-391" as="offset" />
      </mxGeometry>
    </mxCell>
    <mxCell id="rN-NryZCxEeuz7KnTCO--56" value="Type" style="swimlane;fontStyle=0;align=center;verticalAlign=top;childLayout=stackLayout;horizontal=1;startSize=30;horizontalStack=0;resizeParent=1;resizeLast=0;collapsible=1;marginBottom=0;rounded=0;shadow=0;strokeWidth=1;" vertex="1" parent="WIyWlLk6GJQsqaUBKTNV-1">
      <mxGeometry x="155" y="70" width="290" height="280" as="geometry">
        <mxRectangle x="47.5" y="80" width="160" height="26" as="alternateBounds" />
      </mxGeometry>
    </mxCell>
    <mxCell id="rN-NryZCxEeuz7KnTCO--73" value="-date:LocalDate" style="text;align=left;verticalAlign=top;spacingLeft=4;spacingRight=4;overflow=hidden;rotatable=0;points=[[0,0.5],[1,0.5]];portConstraint=eastwest;" vertex="1" parent="rN-NryZCxEeuz7KnTCO--56">
      <mxGeometry y="30" width="290" height="30" as="geometry" />
    </mxCell>
    <mxCell id="rN-NryZCxEeuz7KnTCO--77" value="-recurrenceFrequency:RecurrenceFreuency" style="text;align=left;verticalAlign=top;spacingLeft=4;spacingRight=4;overflow=hidden;rotatable=0;points=[[0,0.5],[1,0.5]];portConstraint=eastwest;" vertex="1" parent="rN-NryZCxEeuz7KnTCO--56">
      <mxGeometry y="60" width="290" height="30" as="geometry" />
    </mxCell>
    <mxCell id="rN-NryZCxEeuz7KnTCO--78" value="-lastRecurrence:LocalDate" style="text;align=left;verticalAlign=top;spacingLeft=4;spacingRight=4;overflow=hidden;rotatable=0;points=[[0,0.5],[1,0.5]];portConstraint=eastwest;" vertex="1" parent="rN-NryZCxEeuz7KnTCO--56">
      <mxGeometry y="90" width="290" height="30" as="geometry" />
    </mxCell>
    <mxCell id="rN-NryZCxEeuz7KnTCO--79" value="-dayOfRecurrence:int" style="text;align=left;verticalAlign=top;spacingLeft=4;spacingRight=4;overflow=hidden;rotatable=0;points=[[0,0.5],[1,0.5]];portConstraint=eastwest;" vertex="1" parent="rN-NryZCxEeuz7KnTCO--56">
      <mxGeometry y="120" width="290" height="30" as="geometry" />
    </mxCell>
    <mxCell id="rN-NryZCxEeuz7KnTCO--57" value="" style="line;html=1;strokeWidth=1;align=left;verticalAlign=middle;spacingTop=-1;spacingLeft=3;spacingRight=3;rotatable=0;labelPosition=right;points=[];portConstraint=eastwest;" vertex="1" parent="rN-NryZCxEeuz7KnTCO--56">
      <mxGeometry y="150" width="290" height="10" as="geometry" />
    </mxCell>
    <mxCell id="rN-NryZCxEeuz7KnTCO--84" value="+getDate():LocalDate" style="text;align=left;verticalAlign=top;spacingLeft=4;spacingRight=4;overflow=hidden;rotatable=0;points=[[0,0.5],[1,0.5]];portConstraint=eastwest;" vertex="1" parent="rN-NryZCxEeuz7KnTCO--56">
      <mxGeometry y="160" width="290" height="30" as="geometry" />
    </mxCell>
    <mxCell id="rN-NryZCxEeuz7KnTCO--81" value="+getRecurrenceFrequency():RecurrenceFrequency" style="text;align=left;verticalAlign=top;spacingLeft=4;spacingRight=4;overflow=hidden;rotatable=0;points=[[0,0.5],[1,0.5]];portConstraint=eastwest;" vertex="1" parent="rN-NryZCxEeuz7KnTCO--56">
      <mxGeometry y="190" width="290" height="30" as="geometry" />
    </mxCell>
    <mxCell id="rN-NryZCxEeuz7KnTCO--82" value="+getLastRecurrence():LocalDate" style="text;align=left;verticalAlign=top;spacingLeft=4;spacingRight=4;overflow=hidden;rotatable=0;points=[[0,0.5],[1,0.5]];portConstraint=eastwest;" vertex="1" parent="rN-NryZCxEeuz7KnTCO--56">
      <mxGeometry y="220" width="290" height="30" as="geometry" />
    </mxCell>
    <mxCell id="rN-NryZCxEeuz7KnTCO--83" value="+getDayOfRecurrence():int" style="text;align=left;verticalAlign=top;spacingLeft=4;spacingRight=4;overflow=hidden;rotatable=0;points=[[0,0.5],[1,0.5]];portConstraint=eastwest;" vertex="1" parent="rN-NryZCxEeuz7KnTCO--56">
      <mxGeometry y="250" width="290" height="30" as="geometry" />
    </mxCell>
    <mxCell id="rN-NryZCxEeuz7KnTCO--58" value="" style="endArrow=open;dashed=1;html=1;rounded=0;exitX=0.25;exitY=0;exitDx=0;exitDy=0;entryX=0.5;entryY=1;entryDx=0;entryDy=0;endFill=0;" edge="1" parent="WIyWlLk6GJQsqaUBKTNV-1" source="zkfFHV4jXpPFQw0GAbJ--0" target="rN-NryZCxEeuz7KnTCO--31">
      <mxGeometry width="50" height="50" relative="1" as="geometry">
        <mxPoint x="340" y="460" as="sourcePoint" />
        <mxPoint x="390" y="410" as="targetPoint" />
      </mxGeometry>
    </mxCell>
    <mxCell id="rN-NryZCxEeuz7KnTCO--59" value="" style="endArrow=open;dashed=1;html=1;rounded=0;exitX=0.75;exitY=0;exitDx=0;exitDy=0;entryX=0.5;entryY=1;entryDx=0;entryDy=0;endFill=0;" edge="1" parent="WIyWlLk6GJQsqaUBKTNV-1" source="zkfFHV4jXpPFQw0GAbJ--0" target="rN-NryZCxEeuz7KnTCO--44">
      <mxGeometry width="50" height="50" relative="1" as="geometry">
        <mxPoint x="340" y="460" as="sourcePoint" />
        <mxPoint x="390" y="410" as="targetPoint" />
      </mxGeometry>
    </mxCell>
    <mxCell id="rN-NryZCxEeuz7KnTCO--60" value="" style="edgeStyle=segmentEdgeStyle;endArrow=none;html=1;curved=0;rounded=0;endSize=8;startSize=8;startArrow=block;startFill=0;endFill=0;entryX=0.5;entryY=0;entryDx=0;entryDy=0;exitX=0;exitY=0.5;exitDx=0;exitDy=0;" edge="1" parent="WIyWlLk6GJQsqaUBKTNV-1" source="rN-NryZCxEeuz7KnTCO--56" target="rN-NryZCxEeuz7KnTCO--46">
      <mxGeometry width="50" height="50" relative="1" as="geometry">
        <mxPoint x="-89.99999999999955" y="230" as="sourcePoint" />
        <mxPoint x="-139.99999999999955" y="280" as="targetPoint" />
      </mxGeometry>
    </mxCell>
    <mxCell id="rN-NryZCxEeuz7KnTCO--62" value="" style="edgeStyle=segmentEdgeStyle;endArrow=none;html=1;curved=0;rounded=0;endSize=8;startSize=8;startArrow=block;startFill=0;endFill=0;entryX=0.5;entryY=0;entryDx=0;entryDy=0;exitX=1;exitY=0.5;exitDx=0;exitDy=0;" edge="1" parent="WIyWlLk6GJQsqaUBKTNV-1" source="rN-NryZCxEeuz7KnTCO--56" target="rN-NryZCxEeuz7KnTCO--48">
      <mxGeometry width="50" height="50" relative="1" as="geometry">
        <mxPoint x="420" y="240" as="sourcePoint" />
        <mxPoint x="810" y="375" as="targetPoint" />
      </mxGeometry>
    </mxCell>
    <mxCell id="rN-NryZCxEeuz7KnTCO--67" value="Parser" style="swimlane;fontStyle=0;align=center;verticalAlign=top;childLayout=stackLayout;horizontal=1;startSize=30;horizontalStack=0;resizeParent=1;resizeLast=0;collapsible=1;marginBottom=0;rounded=0;shadow=0;strokeWidth=1;" vertex="1" parent="WIyWlLk6GJQsqaUBKTNV-1">
      <mxGeometry x="193.5" y="375" width="220" height="80" as="geometry">
        <mxRectangle x="47.5" y="80" width="160" height="26" as="alternateBounds" />
      </mxGeometry>
    </mxCell>
    <mxCell id="rN-NryZCxEeuz7KnTCO--68" value="" style="line;html=1;strokeWidth=1;align=left;verticalAlign=middle;spacingTop=-1;spacingLeft=3;spacingRight=3;rotatable=0;labelPosition=right;points=[];portConstraint=eastwest;" vertex="1" parent="rN-NryZCxEeuz7KnTCO--67">
      <mxGeometry y="30" width="220" height="20" as="geometry" />
    </mxCell>
    <mxCell id="rN-NryZCxEeuz7KnTCO--69" value="+parseRecurrence(entry:Type):void" style="text;align=left;verticalAlign=top;spacingLeft=4;spacingRight=4;overflow=hidden;rotatable=0;points=[[0,0.5],[1,0.5]];portConstraint=eastwest;" vertex="1" parent="rN-NryZCxEeuz7KnTCO--67">
      <mxGeometry y="50" width="220" height="30" as="geometry" />
    </mxCell>
    <mxCell id="rN-NryZCxEeuz7KnTCO--86" value="" style="edgeStyle=segmentEdgeStyle;endArrow=open;html=1;curved=0;rounded=0;endSize=8;startSize=8;exitX=1;exitY=0.5;exitDx=0;exitDy=0;entryX=0.5;entryY=1;entryDx=0;entryDy=0;dashed=1;endFill=0;" edge="1" parent="WIyWlLk6GJQsqaUBKTNV-1" source="rN-NryZCxEeuz7KnTCO--17" target="rN-NryZCxEeuz7KnTCO--48">
      <mxGeometry width="50" height="50" relative="1" as="geometry">
        <mxPoint x="560" y="635" as="sourcePoint" />
        <mxPoint x="610" y="585" as="targetPoint" />
      </mxGeometry>
    </mxCell>
    <mxCell id="rN-NryZCxEeuz7KnTCO--87" value="" style="edgeStyle=segmentEdgeStyle;endArrow=open;html=1;curved=0;rounded=0;endSize=8;startSize=8;exitX=0;exitY=0.5;exitDx=0;exitDy=0;entryX=0.5;entryY=1;entryDx=0;entryDy=0;dashed=1;endFill=0;" edge="1" parent="WIyWlLk6GJQsqaUBKTNV-1" source="rN-NryZCxEeuz7KnTCO--17" target="rN-NryZCxEeuz7KnTCO--46">
      <mxGeometry width="50" height="50" relative="1" as="geometry">
        <mxPoint x="13.996923076923323" y="628" as="sourcePoint" />
        <mxPoint x="-210.00307692307666" y="450" as="targetPoint" />
      </mxGeometry>
    </mxCell>
    <mxCell id="rN-NryZCxEeuz7KnTCO--88" value="" style="shape=note;whiteSpace=wrap;html=1;backgroundOutline=1;darkOpacity=0.05;rotation=-90;" vertex="1" parent="WIyWlLk6GJQsqaUBKTNV-1">
      <mxGeometry x="588" y="20" width="90" height="150" as="geometry" />
    </mxCell>
    <mxCell id="rN-NryZCxEeuz7KnTCO--89" value="Some method and attributes are omitted due to irrelevance to Recurrence Component" style="text;html=1;align=center;verticalAlign=middle;whiteSpace=wrap;rounded=0;" vertex="1" parent="WIyWlLk6GJQsqaUBKTNV-1">
      <mxGeometry x="560" y="94" width="150" height="30" as="geometry" />
    </mxCell>
  </root>
</mxGraphModel>
